{
    "asset" : {
        "generator" : "Khronos glTF Blender I/O v3.4.50",
        "version" : "2.0"
    },
    "scene" : 0,
    "scenes" : [
        {
            "name" : "Scene",
            "nodes" : [
                0
            ]
        }
    ],
    "nodes" : [
        {
            "mesh" : 0,
            "name" : "Object_116.001",
            "scale" : [
                1.3369321823120117,
                1.3369321823120117,
                1.3369321823120117
            ],
            "translation" : [
                385.39544677734375,
                0,
                27.404884338378906
            ]
        }
    ],
    "materials" : [
        {
            "doubleSided" : true,
            "name" : "M_Glass_02",
            "normalTexture" : {
                "index" : 0
            },
            "pbrMetallicRoughness" : {
                "baseColorTexture" : {
                    "index" : 1
                },
                "metallicRoughnessTexture" : {
                    "index" : 2
                }
            }
        },
        {
            "doubleSided" : true,
            "name" : "M_Grey_01",
            "pbrMetallicRoughness" : {
                "baseColorFactor" : [
                    0.03521779924631119,
                    0.03521779924631119,
                    0.03521779924631119,
                    1
                ],
                "roughnessFactor" : 0.4447369873523712
            }
        },
        {
            "doubleSided" : true,
            "name" : "M_Smooth_01",
            "normalTexture" : {
                "index" : 3,
                "texCoord" : 2
            },
            "pbrMetallicRoughness" : {
                "baseColorTexture" : {
                    "index" : 4
                },
                "metallicRoughnessTexture" : {
                    "index" : 5,
                    "texCoord" : 1
                }
            }
        }
    ],
    "meshes" : [
        {
            "name" : "Object_88.001",
            "primitives" : [
                {
                    "attributes" : {
                        "POSITION" : 0,
                        "TEXCOORD_0" : 1,
                        "TEXCOORD_1" : 2,
                        "TEXCOORD_2" : 3,
                        "TEXCOORD_3" : 4,
                        "NORMAL" : 5
                    },
                    "indices" : 6,
                    "material" : 0
                },
                {
                    "attributes" : {
                        "POSITION" : 7,
                        "TEXCOORD_0" : 8,
                        "TEXCOORD_1" : 9,
                        "TEXCOORD_2" : 10,
                        "TEXCOORD_3" : 11,
                        "NORMAL" : 12
                    },
                    "indices" : 13,
                    "material" : 1
                },
                {
                    "attributes" : {
                        "POSITION" : 14,
                        "TEXCOORD_0" : 15,
                        "TEXCOORD_1" : 16,
                        "TEXCOORD_2" : 17,
                        "TEXCOORD_3" : 18,
                        "NORMAL" : 19
                    },
                    "indices" : 20,
                    "material" : 2
                }
            ]
        }
    ],
    "textures" : [
        {
            "sampler" : 0,
            "source" : 0
        },
        {
            "sampler" : 0,
            "source" : 1
        },
        {
            "sampler" : 0,
            "source" : 2
        },
        {
            "sampler" : 0,
            "source" : 3
        },
        {
            "sampler" : 0,
            "source" : 4
        },
        {
            "sampler" : 0,
            "source" : 5
        }
    ],
    "images" : [
        {
            "bufferView" : 7,
            "mimeType" : "image/png",
            "name" : "M_Glass_02_normal"
        },
        {
            "bufferView" : 8,
            "mimeType" : "image/png",
            "name" : "M_Glass_02_baseColor"
        },
        {
            "bufferView" : 9,
            "mimeType" : "image/png",
            "name" : "M_Glass_02_metallicRoughness"
        },
        {
            "bufferView" : 24,
            "mimeType" : "image/png",
            "name" : "M_Smooth_01_normal"
        },
        {
            "bufferView" : 25,
            "mimeType" : "image/png",
            "name" : "M_Smooth_01_baseColor"
        },
        {
            "bufferView" : 26,
            "mimeType" : "image/png",
            "name" : "M_Smooth_01_metallicRoughness"
        }
    ],
    "accessors" : [
        {
            "bufferView" : 0,
            "componentType" : 5126,
            "count" : 44,
            "max" : [
                1.046586513519287,
                18.895288467407227,
                2.1270227432250977
            ],
            "min" : [
                -3.6632936000823975,
                0,
                -2.126971960067749
            ],
            "type" : "VEC3"
        },
        {
            "bufferView" : 1,
            "componentType" : 5126,
            "count" : 44,
            "type" : "VEC2"
        },
        {
            "bufferView" : 2,
            "componentType" : 5126,
            "count" : 44,
            "type" : "VEC2"
        },
        {
            "bufferView" : 3,
            "componentType" : 5126,
            "count" : 44,
            "type" : "VEC2"
        },
        {
            "bufferView" : 4,
            "componentType" : 5126,
            "count" : 44,
            "type" : "VEC2"
        },
        {
            "bufferView" : 5,
            "componentType" : 5126,
            "count" : 44,
            "type" : "VEC3"
        },
        {
            "bufferView" : 6,
            "componentType" : 5123,
            "count" : 120,
            "type" : "SCALAR"
        },
        {
            "bufferView" : 10,
            "componentType" : 5126,
            "count" : 596,
            "max" : [
                1.6348347663879395,
                18.962129592895508,
                2.7493724822998047
            ],
            "min" : [
                -3.6632957458496094,
                0,
                -2.7493581771850586
            ],
            "type" : "VEC3"
        },
        {
            "bufferView" : 11,
            "componentType" : 5126,
            "count" : 596,
            "type" : "VEC2"
        },
        {
            "bufferView" : 12,
            "componentType" : 5126,
            "count" : 596,
            "type" : "VEC2"
        },
        {
            "bufferView" : 13,
            "componentType" : 5126,
            "count" : 596,
            "type" : "VEC2"
        },
        {
            "bufferView" : 14,
            "componentType" : 5126,
            "count" : 596,
            "type" : "VEC2"
        },
        {
            "bufferView" : 15,
            "componentType" : 5126,
            "count" : 596,
            "type" : "VEC3"
        },
        {
            "bufferView" : 16,
            "componentType" : 5123,
            "count" : 1278,
            "type" : "SCALAR"
        },
        {
            "bufferView" : 17,
            "componentType" : 5126,
            "count" : 92,
            "max" : [
                1.1133038997650146,
                18.895288467407227,
                2.227376699447632
            ],
            "min" : [
                -3.6632936000823975,
                0,
                -2.227353811264038
            ],
            "type" : "VEC3"
        },
        {
            "bufferView" : 18,
            "componentType" : 5126,
            "count" : 92,
            "type" : "VEC2"
        },
        {
            "bufferView" : 19,
            "componentType" : 5126,
            "count" : 92,
            "type" : "VEC2"
        },
        {
            "bufferView" : 20,
            "componentType" : 5126,
            "count" : 92,
            "type" : "VEC2"
        },
        {
            "bufferView" : 21,
            "componentType" : 5126,
            "count" : 92,
            "type" : "VEC2"
        },
        {
            "bufferView" : 22,
            "componentType" : 5126,
            "count" : 92,
            "type" : "VEC3"
        },
        {
            "bufferView" : 23,
            "componentType" : 5123,
            "count" : 246,
            "type" : "SCALAR"
        }
    ],
    "bufferViews" : [
        {
            "buffer" : 0,
            "byteLength" : 528,
            "byteOffset" : 0,
            "target" : 34962
        },
        {
            "buffer" : 0,
            "byteLength" : 352,
            "byteOffset" : 528,
            "target" : 34962
        },
        {
            "buffer" : 0,
            "byteLength" : 352,
            "byteOffset" : 880,
            "target" : 34962
        },
        {
            "buffer" : 0,
            "byteLength" : 352,
            "byteOffset" : 1232,
            "target" : 34962
        },
        {
            "buffer" : 0,
            "byteLength" : 352,
            "byteOffset" : 1584,
            "target" : 34962
        },
        {
            "buffer" : 0,
            "byteLength" : 528,
            "byteOffset" : 1936,
            "target" : 34962
        },
        {
            "buffer" : 0,
            "byteLength" : 240,
            "byteOffset" : 2464,
            "target" : 34963
        },
        {
            "buffer" : 0,
            "byteLength" : 269958,
            "byteOffset" : 2704
        },
        {
            "buffer" : 0,
            "byteLength" : 94880,
            "byteOffset" : 272664
        },
        {
            "buffer" : 0,
            "byteLength" : 107899,
            "byteOffset" : 367544
        },
        {
            "buffer" : 0,
            "byteLength" : 7152,
            "byteOffset" : 475444,
            "target" : 34962
        },
        {
            "buffer" : 0,
            "byteLength" : 4768,
            "byteOffset" : 482596,
            "target" : 34962
        },
        {
            "buffer" : 0,
            "byteLength" : 4768,
            "byteOffset" : 487364,
            "target" : 34962
        },
        {
            "buffer" : 0,
            "byteLength" : 4768,
            "byteOffset" : 492132,
            "target" : 34962
        },
        {
            "buffer" : 0,
            "byteLength" : 4768,
            "byteOffset" : 496900,
            "target" : 34962
        },
        {
            "buffer" : 0,
            "byteLength" : 7152,
            "byteOffset" : 501668,
            "target" : 34962
        },
        {
            "buffer" : 0,
            "byteLength" : 2556,
            "byteOffset" : 508820,
            "target" : 34963
        },
        {
            "buffer" : 0,
            "byteLength" : 1104,
            "byteOffset" : 511376,
            "target" : 34962
        },
        {
            "buffer" : 0,
            "byteLength" : 736,
            "byteOffset" : 512480,
            "target" : 34962
        },
        {
            "buffer" : 0,
            "byteLength" : 736,
            "byteOffset" : 513216,
            "target" : 34962
        },
        {
            "buffer" : 0,
            "byteLength" : 736,
            "byteOffset" : 513952,
            "target" : 34962
        },
        {
            "buffer" : 0,
            "byteLength" : 736,
            "byteOffset" : 514688,
            "target" : 34962
        },
        {
            "buffer" : 0,
            "byteLength" : 1104,
            "byteOffset" : 515424,
            "target" : 34962
        },
        {
            "buffer" : 0,
            "byteLength" : 492,
            "byteOffset" : 516528,
            "target" : 34963
        },
        {
            "buffer" : 0,
            "byteLength" : 1442684,
            "byteOffset" : 517020
        },
        {
            "buffer" : 0,
            "byteLength" : 6989,
            "byteOffset" : 1959704
        },
        {
            "buffer" : 0,
            "byteLength" : 605,
            "byteOffset" : 1966696
        }
    ],
    "samplers" : [
        {
            "magFilter" : 9729,
            "minFilter" : 9987
        }
    ],
    "buffers" : [
        {
            "byteLength" : 1967304,
            "uri" : "data:application/octet-stream;base64,"
        }
    ]
}
