{
    "asset" : {
        "generator" : "Khronos glTF Blender I/O v3.4.50",
        "version" : "2.0"
    },
    "scene" : 0,
    "scenes" : [
        {
            "name" : "Scene",
            "nodes" : [
                0
            ]
        }
    ],
    "nodes" : [
        {
            "mesh" : 0,
            "name" : "Object_53.001",
            "scale" : [
                1.2815955877304077,
                1.2815955877304077,
                1.2815955877304077
            ],
            "translation" : [
                401.91815185546875,
                0,
                0
            ]
        }
    ],
    "materials" : [
        {
            "doubleSided" : true,
            "name" : "M_Smooth_01.008",
            "normalTexture" : {
                "index" : 0,
                "texCoord" : 2
            },
            "pbrMetallicRoughness" : {
                "baseColorTexture" : {
                    "index" : 1
                },
                "metallicRoughnessTexture" : {
                    "index" : 2,
                    "texCoord" : 1
                }
            }
        },
        {
            "doubleSided" : true,
            "name" : "M_Grey_01.005",
            "pbrMetallicRoughness" : {
                "baseColorFactor" : [
                    0.03521779924631119,
                    0.03521779924631119,
                    0.03521779924631119,
                    1
                ],
                "roughnessFactor" : 0.4447369873523712
            }
        },
        {
            "doubleSided" : true,
            "name" : "M_Grey_02.004",
            "pbrMetallicRoughness" : {
                "baseColorFactor" : [
                    0.32637500762939453,
                    0.32637500762939453,
                    0.32637500762939453,
                    1
                ],
                "roughnessFactor" : 0.1552630066871643
            }
        }
    ],
    "meshes" : [
        {
            "name" : "Object_39.002",
            "primitives" : [
                {
                    "attributes" : {
                        "POSITION" : 0,
                        "TEXCOORD_0" : 1,
                        "TEXCOORD_1" : 2,
                        "TEXCOORD_2" : 3,
                        "TEXCOORD_3" : 4,
                        "TEXCOORD_4" : 5,
                        "TEXCOORD_5" : 6,
                        "NORMAL" : 7
                    },
                    "indices" : 8,
                    "material" : 0
                },
                {
                    "attributes" : {
                        "POSITION" : 9,
                        "TEXCOORD_0" : 10,
                        "TEXCOORD_1" : 11,
                        "TEXCOORD_2" : 12,
                        "TEXCOORD_3" : 13,
                        "TEXCOORD_4" : 14,
                        "TEXCOORD_5" : 15,
                        "NORMAL" : 16
                    },
                    "indices" : 17,
                    "material" : 1
                },
                {
                    "attributes" : {
                        "POSITION" : 18,
                        "TEXCOORD_0" : 19,
                        "TEXCOORD_1" : 20,
                        "TEXCOORD_2" : 21,
                        "TEXCOORD_3" : 22,
                        "TEXCOORD_4" : 23,
                        "TEXCOORD_5" : 24,
                        "NORMAL" : 25
                    },
                    "indices" : 26,
                    "material" : 2
                }
            ]
        }
    ],
    "textures" : [
        {
            "sampler" : 0,
            "source" : 0
        },
        {
            "sampler" : 0,
            "source" : 1
        },
        {
            "sampler" : 0,
            "source" : 2
        }
    ],
    "images" : [
        {
            "bufferView" : 9,
            "mimeType" : "image/png",
            "name" : "M_Smooth_01_normal"
        },
        {
            "bufferView" : 10,
            "mimeType" : "image/png",
            "name" : "M_Smooth_01_baseColor"
        },
        {
            "bufferView" : 11,
            "mimeType" : "image/png",
            "name" : "M_Smooth_01_metallicRoughness"
        }
    ],
    "accessors" : [
        {
            "bufferView" : 0,
            "componentType" : 5126,
            "count" : 1031,
            "max" : [
                1.5875860452651978,
                10.002354621887207,
                1.9716618061065674
            ],
            "min" : [
                -1.5875861644744873,
                -0.00037888463702984154,
                -1.9716607332229614
            ],
            "type" : "VEC3"
        },
        {
            "bufferView" : 1,
            "componentType" : 5126,
            "count" : 1031,
            "type" : "VEC2"
        },
        {
            "bufferView" : 2,
            "componentType" : 5126,
            "count" : 1031,
            "type" : "VEC2"
        },
        {
            "bufferView" : 3,
            "componentType" : 5126,
            "count" : 1031,
            "type" : "VEC2"
        },
        {
            "bufferView" : 4,
            "componentType" : 5126,
            "count" : 1031,
            "type" : "VEC2"
        },
        {
            "bufferView" : 5,
            "componentType" : 5126,
            "count" : 1031,
            "type" : "VEC2"
        },
        {
            "bufferView" : 6,
            "componentType" : 5126,
            "count" : 1031,
            "type" : "VEC2"
        },
        {
            "bufferView" : 7,
            "componentType" : 5126,
            "count" : 1031,
            "type" : "VEC3"
        },
        {
            "bufferView" : 8,
            "componentType" : 5123,
            "count" : 1788,
            "type" : "SCALAR"
        },
        {
            "bufferView" : 12,
            "componentType" : 5126,
            "count" : 1817,
            "max" : [
                3.5937998294830322,
                10.002354621887207,
                1.9716618061065674
            ],
            "min" : [
                -3.593798875808716,
                -0.00037888463702984154,
                -1.9716607332229614
            ],
            "type" : "VEC3"
        },
        {
            "bufferView" : 13,
            "componentType" : 5126,
            "count" : 1817,
            "type" : "VEC2"
        },
        {
            "bufferView" : 14,
            "componentType" : 5126,
            "count" : 1817,
            "type" : "VEC2"
        },
        {
            "bufferView" : 15,
            "componentType" : 5126,
            "count" : 1817,
            "type" : "VEC2"
        },
        {
            "bufferView" : 16,
            "componentType" : 5126,
            "count" : 1817,
            "type" : "VEC2"
        },
        {
            "bufferView" : 17,
            "componentType" : 5126,
            "count" : 1817,
            "type" : "VEC2"
        },
        {
            "bufferView" : 18,
            "componentType" : 5126,
            "count" : 1817,
            "type" : "VEC2"
        },
        {
            "bufferView" : 19,
            "componentType" : 5126,
            "count" : 1817,
            "type" : "VEC3"
        },
        {
            "bufferView" : 20,
            "componentType" : 5123,
            "count" : 2934,
            "type" : "SCALAR"
        },
        {
            "bufferView" : 21,
            "componentType" : 5126,
            "count" : 3053,
            "max" : [
                3.5937998294830322,
                9.53302001953125,
                1.9716618061065674
            ],
            "min" : [
                -3.593798875808716,
                -0.0020470437593758106,
                -1.9716607332229614
            ],
            "type" : "VEC3"
        },
        {
            "bufferView" : 22,
            "componentType" : 5126,
            "count" : 3053,
            "type" : "VEC2"
        },
        {
            "bufferView" : 23,
            "componentType" : 5126,
            "count" : 3053,
            "type" : "VEC2"
        },
        {
            "bufferView" : 24,
            "componentType" : 5126,
            "count" : 3053,
            "type" : "VEC2"
        },
        {
            "bufferView" : 25,
            "componentType" : 5126,
            "count" : 3053,
            "type" : "VEC2"
        },
        {
            "bufferView" : 26,
            "componentType" : 5126,
            "count" : 3053,
            "type" : "VEC2"
        },
        {
            "bufferView" : 27,
            "componentType" : 5126,
            "count" : 3053,
            "type" : "VEC2"
        },
        {
            "bufferView" : 28,
            "componentType" : 5126,
            "count" : 3053,
            "type" : "VEC3"
        },
        {
            "bufferView" : 29,
            "componentType" : 5123,
            "count" : 4368,
            "type" : "SCALAR"
        }
    ],
    "bufferViews" : [
        {
            "buffer" : 0,
            "byteLength" : 12372,
            "byteOffset" : 0,
            "target" : 34962
        },
        {
            "buffer" : 0,
            "byteLength" : 8248,
            "byteOffset" : 12372,
            "target" : 34962
        },
        {
            "buffer" : 0,
            "byteLength" : 8248,
            "byteOffset" : 20620,
            "target" : 34962
        },
        {
            "buffer" : 0,
            "byteLength" : 8248,
            "byteOffset" : 28868,
            "target" : 34962
        },
        {
            "buffer" : 0,
            "byteLength" : 8248,
            "byteOffset" : 37116,
            "target" : 34962
        },
        {
            "buffer" : 0,
            "byteLength" : 8248,
            "byteOffset" : 45364,
            "target" : 34962
        },
        {
            "buffer" : 0,
            "byteLength" : 8248,
            "byteOffset" : 53612,
            "target" : 34962
        },
        {
            "buffer" : 0,
            "byteLength" : 12372,
            "byteOffset" : 61860,
            "target" : 34962
        },
        {
            "buffer" : 0,
            "byteLength" : 3576,
            "byteOffset" : 74232,
            "target" : 34963
        },
        {
            "buffer" : 0,
            "byteLength" : 1442684,
            "byteOffset" : 77808
        },
        {
            "buffer" : 0,
            "byteLength" : 6989,
            "byteOffset" : 1520492
        },
        {
            "buffer" : 0,
            "byteLength" : 605,
            "byteOffset" : 1527484
        },
        {
            "buffer" : 0,
            "byteLength" : 21804,
            "byteOffset" : 1528092,
            "target" : 34962
        },
        {
            "buffer" : 0,
            "byteLength" : 14536,
            "byteOffset" : 1549896,
            "target" : 34962
        },
        {
            "buffer" : 0,
            "byteLength" : 14536,
            "byteOffset" : 1564432,
            "target" : 34962
        },
        {
            "buffer" : 0,
            "byteLength" : 14536,
            "byteOffset" : 1578968,
            "target" : 34962
        },
        {
            "buffer" : 0,
            "byteLength" : 14536,
            "byteOffset" : 1593504,
            "target" : 34962
        },
        {
            "buffer" : 0,
            "byteLength" : 14536,
            "byteOffset" : 1608040,
            "target" : 34962
        },
        {
            "buffer" : 0,
            "byteLength" : 14536,
            "byteOffset" : 1622576,
            "target" : 34962
        },
        {
            "buffer" : 0,
            "byteLength" : 21804,
            "byteOffset" : 1637112,
            "target" : 34962
        },
        {
            "buffer" : 0,
            "byteLength" : 5868,
            "byteOffset" : 1658916,
            "target" : 34963
        },
        {
            "buffer" : 0,
            "byteLength" : 36636,
            "byteOffset" : 1664784,
            "target" : 34962
        },
        {
            "buffer" : 0,
            "byteLength" : 24424,
            "byteOffset" : 1701420,
            "target" : 34962
        },
        {
            "buffer" : 0,
            "byteLength" : 24424,
            "byteOffset" : 1725844,
            "target" : 34962
        },
        {
            "buffer" : 0,
            "byteLength" : 24424,
            "byteOffset" : 1750268,
            "target" : 34962
        },
        {
            "buffer" : 0,
            "byteLength" : 24424,
            "byteOffset" : 1774692,
            "target" : 34962
        },
        {
            "buffer" : 0,
            "byteLength" : 24424,
            "byteOffset" : 1799116,
            "target" : 34962
        },
        {
            "buffer" : 0,
            "byteLength" : 24424,
            "byteOffset" : 1823540,
            "target" : 34962
        },
        {
            "buffer" : 0,
            "byteLength" : 36636,
            "byteOffset" : 1847964,
            "target" : 34962
        },
        {
            "buffer" : 0,
            "byteLength" : 8736,
            "byteOffset" : 1884600,
            "target" : 34963
        }
    ],
    "samplers" : [
        {
            "magFilter" : 9729,
            "minFilter" : 9987
        }
    ],
    "buffers" : [
        {
            "byteLength" : 1893336,
            "uri" : "data:application/octet-stream;base64,"
        }
    ]
}
