{
    "asset" : {
        "generator" : "Khronos glTF Blender I/O v3.4.50",
        "version" : "2.0"
    },
    "scene" : 0,
    "scenes" : [
        {
            "name" : "Scene",
            "nodes" : [
                0
            ]
        }
    ],
    "nodes" : [
        {
            "mesh" : 0,
            "name" : "Object_59",
            "translation" : [
                418.3929748535156,
                0,
                -25.996706008911133
            ]
        }
    ],
    "materials" : [
        {
            "doubleSided" : true,
            "name" : "M_Grey_01",
            "pbrMetallicRoughness" : {
                "baseColorFactor" : [
                    0.03521779924631119,
                    0.03521779924631119,
                    0.03521779924631119,
                    1
                ],
                "roughnessFactor" : 0.4447369873523712
            }
        },
        {
            "doubleSided" : true,
            "name" : "M_Grey_02",
            "pbrMetallicRoughness" : {
                "baseColorFactor" : [
                    0.32637500762939453,
                    0.32637500762939453,
                    0.32637500762939453,
                    1
                ],
                "roughnessFactor" : 0.1552630066871643
            }
        },
        {
            "doubleSided" : true,
            "name" : "M_Smooth_01",
            "normalTexture" : {
                "index" : 0,
                "texCoord" : 2
            },
            "pbrMetallicRoughness" : {
                "baseColorTexture" : {
                    "index" : 1
                },
                "metallicRoughnessTexture" : {
                    "index" : 2,
                    "texCoord" : 1
                }
            }
        }
    ],
    "meshes" : [
        {
            "name" : "Object_44.001",
            "primitives" : [
                {
                    "attributes" : {
                        "POSITION" : 0,
                        "TEXCOORD_0" : 1,
                        "TEXCOORD_1" : 2,
                        "TEXCOORD_2" : 3,
                        "TEXCOORD_3" : 4,
                        "NORMAL" : 5
                    },
                    "indices" : 6,
                    "material" : 0
                },
                {
                    "attributes" : {
                        "POSITION" : 7,
                        "TEXCOORD_0" : 8,
                        "TEXCOORD_1" : 9,
                        "TEXCOORD_2" : 10,
                        "TEXCOORD_3" : 11,
                        "NORMAL" : 12
                    },
                    "indices" : 13,
                    "material" : 1
                },
                {
                    "attributes" : {
                        "POSITION" : 14,
                        "TEXCOORD_0" : 15,
                        "TEXCOORD_1" : 16,
                        "TEXCOORD_2" : 17,
                        "TEXCOORD_3" : 18,
                        "NORMAL" : 19
                    },
                    "indices" : 20,
                    "material" : 2
                }
            ]
        }
    ],
    "textures" : [
        {
            "sampler" : 0,
            "source" : 0
        },
        {
            "sampler" : 0,
            "source" : 1
        },
        {
            "sampler" : 0,
            "source" : 2
        }
    ],
    "images" : [
        {
            "bufferView" : 21,
            "mimeType" : "image/png",
            "name" : "M_Smooth_01_normal"
        },
        {
            "bufferView" : 22,
            "mimeType" : "image/png",
            "name" : "M_Smooth_01_baseColor"
        },
        {
            "bufferView" : 23,
            "mimeType" : "image/png",
            "name" : "M_Smooth_01_metallicRoughness"
        }
    ],
    "accessors" : [
        {
            "bufferView" : 0,
            "componentType" : 5126,
            "count" : 1781,
            "max" : [
                3.518700361251831,
                5.4185967445373535,
                3.2575221061706543
            ],
            "min" : [
                -3.593801259994507,
                -2.014161282204441e-09,
                -3.257521152496338
            ],
            "type" : "VEC3"
        },
        {
            "bufferView" : 1,
            "componentType" : 5126,
            "count" : 1781,
            "type" : "VEC2"
        },
        {
            "bufferView" : 2,
            "componentType" : 5126,
            "count" : 1781,
            "type" : "VEC2"
        },
        {
            "bufferView" : 3,
            "componentType" : 5126,
            "count" : 1781,
            "type" : "VEC2"
        },
        {
            "bufferView" : 4,
            "componentType" : 5126,
            "count" : 1781,
            "type" : "VEC2"
        },
        {
            "bufferView" : 5,
            "componentType" : 5126,
            "count" : 1781,
            "type" : "VEC3"
        },
        {
            "bufferView" : 6,
            "componentType" : 5123,
            "count" : 2889,
            "type" : "SCALAR"
        },
        {
            "bufferView" : 7,
            "componentType" : 5126,
            "count" : 3188,
            "max" : [
                3.5187249183654785,
                5.164578437805176,
                3.2575225830078125
            ],
            "min" : [
                -3.593818187713623,
                6.478755494754296e-06,
                -3.257521152496338
            ],
            "type" : "VEC3"
        },
        {
            "bufferView" : 8,
            "componentType" : 5126,
            "count" : 3188,
            "type" : "VEC2"
        },
        {
            "bufferView" : 9,
            "componentType" : 5126,
            "count" : 3188,
            "type" : "VEC2"
        },
        {
            "bufferView" : 10,
            "componentType" : 5126,
            "count" : 3188,
            "type" : "VEC2"
        },
        {
            "bufferView" : 11,
            "componentType" : 5126,
            "count" : 3188,
            "type" : "VEC2"
        },
        {
            "bufferView" : 12,
            "componentType" : 5126,
            "count" : 3188,
            "type" : "VEC3"
        },
        {
            "bufferView" : 13,
            "componentType" : 5123,
            "count" : 4191,
            "type" : "SCALAR"
        },
        {
            "bufferView" : 14,
            "componentType" : 5126,
            "count" : 1000,
            "max" : [
                1.5877537727355957,
                5.4185967445373535,
                3.2575221061706543
            ],
            "min" : [
                -1.6627984046936035,
                7.0702940320188645e-06,
                -3.257521152496338
            ],
            "type" : "VEC3"
        },
        {
            "bufferView" : 15,
            "componentType" : 5126,
            "count" : 1000,
            "type" : "VEC2"
        },
        {
            "bufferView" : 16,
            "componentType" : 5126,
            "count" : 1000,
            "type" : "VEC2"
        },
        {
            "bufferView" : 17,
            "componentType" : 5126,
            "count" : 1000,
            "type" : "VEC2"
        },
        {
            "bufferView" : 18,
            "componentType" : 5126,
            "count" : 1000,
            "type" : "VEC2"
        },
        {
            "bufferView" : 19,
            "componentType" : 5126,
            "count" : 1000,
            "type" : "VEC3"
        },
        {
            "bufferView" : 20,
            "componentType" : 5123,
            "count" : 1728,
            "type" : "SCALAR"
        }
    ],
    "bufferViews" : [
        {
            "buffer" : 0,
            "byteLength" : 21372,
            "byteOffset" : 0,
            "target" : 34962
        },
        {
            "buffer" : 0,
            "byteLength" : 14248,
            "byteOffset" : 21372,
            "target" : 34962
        },
        {
            "buffer" : 0,
            "byteLength" : 14248,
            "byteOffset" : 35620,
            "target" : 34962
        },
        {
            "buffer" : 0,
            "byteLength" : 14248,
            "byteOffset" : 49868,
            "target" : 34962
        },
        {
            "buffer" : 0,
            "byteLength" : 14248,
            "byteOffset" : 64116,
            "target" : 34962
        },
        {
            "buffer" : 0,
            "byteLength" : 21372,
            "byteOffset" : 78364,
            "target" : 34962
        },
        {
            "buffer" : 0,
            "byteLength" : 5778,
            "byteOffset" : 99736,
            "target" : 34963
        },
        {
            "buffer" : 0,
            "byteLength" : 38256,
            "byteOffset" : 105516,
            "target" : 34962
        },
        {
            "buffer" : 0,
            "byteLength" : 25504,
            "byteOffset" : 143772,
            "target" : 34962
        },
        {
            "buffer" : 0,
            "byteLength" : 25504,
            "byteOffset" : 169276,
            "target" : 34962
        },
        {
            "buffer" : 0,
            "byteLength" : 25504,
            "byteOffset" : 194780,
            "target" : 34962
        },
        {
            "buffer" : 0,
            "byteLength" : 25504,
            "byteOffset" : 220284,
            "target" : 34962
        },
        {
            "buffer" : 0,
            "byteLength" : 38256,
            "byteOffset" : 245788,
            "target" : 34962
        },
        {
            "buffer" : 0,
            "byteLength" : 8382,
            "byteOffset" : 284044,
            "target" : 34963
        },
        {
            "buffer" : 0,
            "byteLength" : 12000,
            "byteOffset" : 292428,
            "target" : 34962
        },
        {
            "buffer" : 0,
            "byteLength" : 8000,
            "byteOffset" : 304428,
            "target" : 34962
        },
        {
            "buffer" : 0,
            "byteLength" : 8000,
            "byteOffset" : 312428,
            "target" : 34962
        },
        {
            "buffer" : 0,
            "byteLength" : 8000,
            "byteOffset" : 320428,
            "target" : 34962
        },
        {
            "buffer" : 0,
            "byteLength" : 8000,
            "byteOffset" : 328428,
            "target" : 34962
        },
        {
            "buffer" : 0,
            "byteLength" : 12000,
            "byteOffset" : 336428,
            "target" : 34962
        },
        {
            "buffer" : 0,
            "byteLength" : 3456,
            "byteOffset" : 348428,
            "target" : 34963
        },
        {
            "buffer" : 0,
            "byteLength" : 1442684,
            "byteOffset" : 351884
        },
        {
            "buffer" : 0,
            "byteLength" : 6989,
            "byteOffset" : 1794568
        },
        {
            "buffer" : 0,
            "byteLength" : 605,
            "byteOffset" : 1801560
        }
    ],
    "samplers" : [
        {
            "magFilter" : 9729,
            "minFilter" : 9987
        }
    ],
    "buffers" : [
        {
            "byteLength" : 1802168,
            "uri" : "data:application/octet-stream;base64,"
        }
    ]
}
