{
    "asset" : {
        "generator" : "Khronos glTF Blender I/O v3.4.50",
        "version" : "2.0"
    },
    "scene" : 0,
    "scenes" : [
        {
            "name" : "Scene",
            "nodes" : [
                0
            ]
        }
    ],
    "nodes" : [
        {
            "mesh" : 0,
            "name" : "Object_389",
            "translation" : [
                348.19293212890625,
                0,
                0
            ]
        }
    ],
    "materials" : [
        {
            "doubleSided" : true,
            "name" : "M_Smooth_01",
            "normalTexture" : {
                "index" : 0,
                "texCoord" : 2
            },
            "pbrMetallicRoughness" : {
                "baseColorTexture" : {
                    "index" : 1
                },
                "metallicRoughnessTexture" : {
                    "index" : 2,
                    "texCoord" : 1
                }
            }
        },
        {
            "doubleSided" : true,
            "name" : "M_Grey_02",
            "pbrMetallicRoughness" : {
                "baseColorFactor" : [
                    0.32637500762939453,
                    0.32637500762939453,
                    0.32637500762939453,
                    1
                ],
                "roughnessFactor" : 0.1552630066871643
            }
        },
        {
            "doubleSided" : true,
            "name" : "M_Glass_02",
            "normalTexture" : {
                "index" : 3
            },
            "pbrMetallicRoughness" : {
                "baseColorTexture" : {
                    "index" : 4
                },
                "metallicRoughnessTexture" : {
                    "index" : 5
                }
            }
        },
        {
            "doubleSided" : true,
            "name" : "M_Grey_01",
            "pbrMetallicRoughness" : {
                "baseColorFactor" : [
                    0.03521779924631119,
                    0.03521779924631119,
                    0.03521779924631119,
                    1
                ],
                "roughnessFactor" : 0.4447369873523712
            }
        }
    ],
    "meshes" : [
        {
            "name" : "Object_306.001",
            "primitives" : [
                {
                    "attributes" : {
                        "POSITION" : 0,
                        "TEXCOORD_0" : 1,
                        "TEXCOORD_1" : 2,
                        "TEXCOORD_2" : 3,
                        "TEXCOORD_3" : 4,
                        "TEXCOORD_4" : 5,
                        "TEXCOORD_5" : 6,
                        "NORMAL" : 7
                    },
                    "indices" : 8,
                    "material" : 0
                },
                {
                    "attributes" : {
                        "POSITION" : 9,
                        "TEXCOORD_0" : 10,
                        "TEXCOORD_1" : 11,
                        "TEXCOORD_2" : 12,
                        "TEXCOORD_3" : 13,
                        "TEXCOORD_4" : 14,
                        "TEXCOORD_5" : 15,
                        "NORMAL" : 16
                    },
                    "indices" : 17,
                    "material" : 1
                },
                {
                    "attributes" : {
                        "POSITION" : 18,
                        "TEXCOORD_0" : 19,
                        "TEXCOORD_1" : 20,
                        "TEXCOORD_2" : 21,
                        "TEXCOORD_3" : 22,
                        "TEXCOORD_4" : 23,
                        "TEXCOORD_5" : 24,
                        "NORMAL" : 25
                    },
                    "indices" : 26,
                    "material" : 2
                },
                {
                    "attributes" : {
                        "POSITION" : 27,
                        "TEXCOORD_0" : 28,
                        "TEXCOORD_1" : 29,
                        "TEXCOORD_2" : 30,
                        "TEXCOORD_3" : 31,
                        "TEXCOORD_4" : 32,
                        "TEXCOORD_5" : 33,
                        "NORMAL" : 34
                    },
                    "indices" : 35,
                    "material" : 3
                }
            ]
        }
    ],
    "textures" : [
        {
            "sampler" : 0,
            "source" : 0
        },
        {
            "sampler" : 0,
            "source" : 1
        },
        {
            "sampler" : 0,
            "source" : 2
        },
        {
            "sampler" : 0,
            "source" : 3
        },
        {
            "sampler" : 0,
            "source" : 4
        },
        {
            "sampler" : 0,
            "source" : 5
        }
    ],
    "images" : [
        {
            "bufferView" : 9,
            "mimeType" : "image/png",
            "name" : "M_Smooth_01_normal"
        },
        {
            "bufferView" : 10,
            "mimeType" : "image/png",
            "name" : "M_Smooth_01_baseColor"
        },
        {
            "bufferView" : 11,
            "mimeType" : "image/png",
            "name" : "M_Smooth_01_metallicRoughness"
        },
        {
            "bufferView" : 30,
            "mimeType" : "image/png",
            "name" : "M_Glass_02_normal"
        },
        {
            "bufferView" : 31,
            "mimeType" : "image/png",
            "name" : "M_Glass_02_baseColor"
        },
        {
            "bufferView" : 32,
            "mimeType" : "image/png",
            "name" : "M_Glass_02_metallicRoughness"
        }
    ],
    "accessors" : [
        {
            "bufferView" : 0,
            "componentType" : 5126,
            "count" : 1506,
            "max" : [
                8.765851974487305,
                7.390498638153076,
                4.363412380218506
            ],
            "min" : [
                -10.828336715698242,
                -0.06228364631533623,
                -4.363406658172607
            ],
            "type" : "VEC3"
        },
        {
            "bufferView" : 1,
            "componentType" : 5126,
            "count" : 1506,
            "type" : "VEC2"
        },
        {
            "bufferView" : 2,
            "componentType" : 5126,
            "count" : 1506,
            "type" : "VEC2"
        },
        {
            "bufferView" : 3,
            "componentType" : 5126,
            "count" : 1506,
            "type" : "VEC2"
        },
        {
            "bufferView" : 4,
            "componentType" : 5126,
            "count" : 1506,
            "type" : "VEC2"
        },
        {
            "bufferView" : 5,
            "componentType" : 5126,
            "count" : 1506,
            "type" : "VEC2"
        },
        {
            "bufferView" : 6,
            "componentType" : 5126,
            "count" : 1506,
            "type" : "VEC2"
        },
        {
            "bufferView" : 7,
            "componentType" : 5126,
            "count" : 1506,
            "type" : "VEC3"
        },
        {
            "bufferView" : 8,
            "componentType" : 5123,
            "count" : 4992,
            "type" : "SCALAR"
        },
        {
            "bufferView" : 12,
            "componentType" : 5126,
            "count" : 1067,
            "max" : [
                8.81920051574707,
                5.396824359893799,
                4.41676139831543
            ],
            "min" : [
                -10.761801719665527,
                -0.11311384290456772,
                -4.416755199432373
            ],
            "type" : "VEC3"
        },
        {
            "bufferView" : 13,
            "componentType" : 5126,
            "count" : 1067,
            "type" : "VEC2"
        },
        {
            "bufferView" : 14,
            "componentType" : 5126,
            "count" : 1067,
            "type" : "VEC2"
        },
        {
            "bufferView" : 15,
            "componentType" : 5126,
            "count" : 1067,
            "type" : "VEC2"
        },
        {
            "bufferView" : 16,
            "componentType" : 5126,
            "count" : 1067,
            "type" : "VEC2"
        },
        {
            "bufferView" : 17,
            "componentType" : 5126,
            "count" : 1067,
            "type" : "VEC2"
        },
        {
            "bufferView" : 18,
            "componentType" : 5126,
            "count" : 1067,
            "type" : "VEC2"
        },
        {
            "bufferView" : 19,
            "componentType" : 5126,
            "count" : 1067,
            "type" : "VEC3"
        },
        {
            "bufferView" : 20,
            "componentType" : 5123,
            "count" : 5760,
            "type" : "SCALAR"
        },
        {
            "bufferView" : 21,
            "componentType" : 5126,
            "count" : 706,
            "max" : [
                7.433279037475586,
                6.540004730224609,
                3.7992162704467773
            ],
            "min" : [
                -7.081882953643799,
                -4.2398110622343665e-07,
                -3.7992055416107178
            ],
            "type" : "VEC3"
        },
        {
            "bufferView" : 22,
            "componentType" : 5126,
            "count" : 706,
            "type" : "VEC2"
        },
        {
            "bufferView" : 23,
            "componentType" : 5126,
            "count" : 706,
            "type" : "VEC2"
        },
        {
            "bufferView" : 24,
            "componentType" : 5126,
            "count" : 706,
            "type" : "VEC2"
        },
        {
            "bufferView" : 25,
            "componentType" : 5126,
            "count" : 706,
            "type" : "VEC2"
        },
        {
            "bufferView" : 26,
            "componentType" : 5126,
            "count" : 706,
            "type" : "VEC2"
        },
        {
            "bufferView" : 27,
            "componentType" : 5126,
            "count" : 706,
            "type" : "VEC2"
        },
        {
            "bufferView" : 28,
            "componentType" : 5126,
            "count" : 706,
            "type" : "VEC3"
        },
        {
            "bufferView" : 29,
            "componentType" : 5123,
            "count" : 1920,
            "type" : "SCALAR"
        },
        {
            "bufferView" : 33,
            "componentType" : 5126,
            "count" : 448,
            "max" : [
                8.765851974487305,
                6.689105987548828,
                4.363412380218506
            ],
            "min" : [
                -10.828336715698242,
                -0.06228364631533623,
                -4.363406658172607
            ],
            "type" : "VEC3"
        },
        {
            "bufferView" : 34,
            "componentType" : 5126,
            "count" : 448,
            "type" : "VEC2"
        },
        {
            "bufferView" : 35,
            "componentType" : 5126,
            "count" : 448,
            "type" : "VEC2"
        },
        {
            "bufferView" : 36,
            "componentType" : 5126,
            "count" : 448,
            "type" : "VEC2"
        },
        {
            "bufferView" : 37,
            "componentType" : 5126,
            "count" : 448,
            "type" : "VEC2"
        },
        {
            "bufferView" : 38,
            "componentType" : 5126,
            "count" : 448,
            "type" : "VEC2"
        },
        {
            "bufferView" : 39,
            "componentType" : 5126,
            "count" : 448,
            "type" : "VEC2"
        },
        {
            "bufferView" : 40,
            "componentType" : 5126,
            "count" : 448,
            "type" : "VEC3"
        },
        {
            "bufferView" : 41,
            "componentType" : 5123,
            "count" : 960,
            "type" : "SCALAR"
        }
    ],
    "bufferViews" : [
        {
            "buffer" : 0,
            "byteLength" : 18072,
            "byteOffset" : 0,
            "target" : 34962
        },
        {
            "buffer" : 0,
            "byteLength" : 12048,
            "byteOffset" : 18072,
            "target" : 34962
        },
        {
            "buffer" : 0,
            "byteLength" : 12048,
            "byteOffset" : 30120,
            "target" : 34962
        },
        {
            "buffer" : 0,
            "byteLength" : 12048,
            "byteOffset" : 42168,
            "target" : 34962
        },
        {
            "buffer" : 0,
            "byteLength" : 12048,
            "byteOffset" : 54216,
            "target" : 34962
        },
        {
            "buffer" : 0,
            "byteLength" : 12048,
            "byteOffset" : 66264,
            "target" : 34962
        },
        {
            "buffer" : 0,
            "byteLength" : 12048,
            "byteOffset" : 78312,
            "target" : 34962
        },
        {
            "buffer" : 0,
            "byteLength" : 18072,
            "byteOffset" : 90360,
            "target" : 34962
        },
        {
            "buffer" : 0,
            "byteLength" : 9984,
            "byteOffset" : 108432,
            "target" : 34963
        },
        {
            "buffer" : 0,
            "byteLength" : 1442684,
            "byteOffset" : 118416
        },
        {
            "buffer" : 0,
            "byteLength" : 6989,
            "byteOffset" : 1561100
        },
        {
            "buffer" : 0,
            "byteLength" : 605,
            "byteOffset" : 1568092
        },
        {
            "buffer" : 0,
            "byteLength" : 12804,
            "byteOffset" : 1568700,
            "target" : 34962
        },
        {
            "buffer" : 0,
            "byteLength" : 8536,
            "byteOffset" : 1581504,
            "target" : 34962
        },
        {
            "buffer" : 0,
            "byteLength" : 8536,
            "byteOffset" : 1590040,
            "target" : 34962
        },
        {
            "buffer" : 0,
            "byteLength" : 8536,
            "byteOffset" : 1598576,
            "target" : 34962
        },
        {
            "buffer" : 0,
            "byteLength" : 8536,
            "byteOffset" : 1607112,
            "target" : 34962
        },
        {
            "buffer" : 0,
            "byteLength" : 8536,
            "byteOffset" : 1615648,
            "target" : 34962
        },
        {
            "buffer" : 0,
            "byteLength" : 8536,
            "byteOffset" : 1624184,
            "target" : 34962
        },
        {
            "buffer" : 0,
            "byteLength" : 12804,
            "byteOffset" : 1632720,
            "target" : 34962
        },
        {
            "buffer" : 0,
            "byteLength" : 11520,
            "byteOffset" : 1645524,
            "target" : 34963
        },
        {
            "buffer" : 0,
            "byteLength" : 8472,
            "byteOffset" : 1657044,
            "target" : 34962
        },
        {
            "buffer" : 0,
            "byteLength" : 5648,
            "byteOffset" : 1665516,
            "target" : 34962
        },
        {
            "buffer" : 0,
            "byteLength" : 5648,
            "byteOffset" : 1671164,
            "target" : 34962
        },
        {
            "buffer" : 0,
            "byteLength" : 5648,
            "byteOffset" : 1676812,
            "target" : 34962
        },
        {
            "buffer" : 0,
            "byteLength" : 5648,
            "byteOffset" : 1682460,
            "target" : 34962
        },
        {
            "buffer" : 0,
            "byteLength" : 5648,
            "byteOffset" : 1688108,
            "target" : 34962
        },
        {
            "buffer" : 0,
            "byteLength" : 5648,
            "byteOffset" : 1693756,
            "target" : 34962
        },
        {
            "buffer" : 0,
            "byteLength" : 8472,
            "byteOffset" : 1699404,
            "target" : 34962
        },
        {
            "buffer" : 0,
            "byteLength" : 3840,
            "byteOffset" : 1707876,
            "target" : 34963
        },
        {
            "buffer" : 0,
            "byteLength" : 269958,
            "byteOffset" : 1711716
        },
        {
            "buffer" : 0,
            "byteLength" : 94880,
            "byteOffset" : 1981676
        },
        {
            "buffer" : 0,
            "byteLength" : 107899,
            "byteOffset" : 2076556
        },
        {
            "buffer" : 0,
            "byteLength" : 5376,
            "byteOffset" : 2184456,
            "target" : 34962
        },
        {
            "buffer" : 0,
            "byteLength" : 3584,
            "byteOffset" : 2189832,
            "target" : 34962
        },
        {
            "buffer" : 0,
            "byteLength" : 3584,
            "byteOffset" : 2193416,
            "target" : 34962
        },
        {
            "buffer" : 0,
            "byteLength" : 3584,
            "byteOffset" : 2197000,
            "target" : 34962
        },
        {
            "buffer" : 0,
            "byteLength" : 3584,
            "byteOffset" : 2200584,
            "target" : 34962
        },
        {
            "buffer" : 0,
            "byteLength" : 3584,
            "byteOffset" : 2204168,
            "target" : 34962
        },
        {
            "buffer" : 0,
            "byteLength" : 3584,
            "byteOffset" : 2207752,
            "target" : 34962
        },
        {
            "buffer" : 0,
            "byteLength" : 5376,
            "byteOffset" : 2211336,
            "target" : 34962
        },
        {
            "buffer" : 0,
            "byteLength" : 1920,
            "byteOffset" : 2216712,
            "target" : 34963
        }
    ],
    "samplers" : [
        {
            "magFilter" : 9729,
            "minFilter" : 9987
        }
    ],
    "buffers" : [
        {
            "byteLength" : 2218632,
            "uri" : "data:application/octet-stream;base64,"
        }
    ]
}
