{
    "asset" : {
        "generator" : "Khronos glTF Blender I/O v3.4.50",
        "version" : "2.0"
    },
    "scene" : 0,
    "scenes" : [
        {
            "name" : "Scene",
            "nodes" : [
                0
            ]
        }
    ],
    "nodes" : [
        {
            "mesh" : 0,
            "name" : "Object_437.001",
            "rotation" : [
                0,
                0.7079424262046814,
                0,
                0.706270158290863
            ],
            "scale" : [
                3.0908713340759277,
                3.0908713340759277,
                3.0908713340759277
            ],
            "translation" : [
                220.50010681152344,
                0,
                117.55913543701172
            ]
        }
    ],
    "materials" : [
        {
            "doubleSided" : true,
            "name" : "M_Smooth_01.001",
            "normalTexture" : {
                "index" : 0,
                "texCoord" : 2
            },
            "pbrMetallicRoughness" : {
                "baseColorTexture" : {
                    "index" : 1
                },
                "metallicRoughnessTexture" : {
                    "index" : 2,
                    "texCoord" : 1
                }
            }
        },
        {
            "doubleSided" : true,
            "name" : "M_Grey_02.001",
            "pbrMetallicRoughness" : {
                "baseColorFactor" : [
                    0.32637500762939453,
                    0.32637500762939453,
                    0.32637500762939453,
                    1
                ],
                "roughnessFactor" : 0.1552630066871643
            }
        },
        {
            "doubleSided" : true,
            "name" : "M_Glass_02.001",
            "normalTexture" : {
                "index" : 3
            },
            "pbrMetallicRoughness" : {
                "baseColorTexture" : {
                    "index" : 4
                },
                "metallicRoughnessTexture" : {
                    "index" : 5
                }
            }
        },
        {
            "doubleSided" : true,
            "name" : "M_Grey_01.001",
            "pbrMetallicRoughness" : {
                "baseColorFactor" : [
                    0.03521779924631119,
                    0.03521779924631119,
                    0.03521779924631119,
                    1
                ],
                "roughnessFactor" : 0.4447369873523712
            }
        }
    ],
    "meshes" : [
        {
            "name" : "Object_345.001",
            "primitives" : [
                {
                    "attributes" : {
                        "POSITION" : 0,
                        "TEXCOORD_0" : 1,
                        "TEXCOORD_1" : 2,
                        "TEXCOORD_2" : 3,
                        "TEXCOORD_3" : 4,
                        "TEXCOORD_4" : 5,
                        "TEXCOORD_5" : 6,
                        "NORMAL" : 7
                    },
                    "indices" : 8,
                    "material" : 0
                },
                {
                    "attributes" : {
                        "POSITION" : 9,
                        "TEXCOORD_0" : 10,
                        "TEXCOORD_1" : 11,
                        "TEXCOORD_2" : 12,
                        "TEXCOORD_3" : 13,
                        "TEXCOORD_4" : 14,
                        "TEXCOORD_5" : 15,
                        "NORMAL" : 16
                    },
                    "indices" : 17,
                    "material" : 1
                },
                {
                    "attributes" : {
                        "POSITION" : 18,
                        "TEXCOORD_0" : 19,
                        "TEXCOORD_1" : 20,
                        "TEXCOORD_2" : 21,
                        "TEXCOORD_3" : 22,
                        "TEXCOORD_4" : 23,
                        "TEXCOORD_5" : 24,
                        "NORMAL" : 25
                    },
                    "indices" : 26,
                    "material" : 2
                },
                {
                    "attributes" : {
                        "POSITION" : 27,
                        "TEXCOORD_0" : 28,
                        "TEXCOORD_1" : 29,
                        "TEXCOORD_2" : 30,
                        "TEXCOORD_3" : 31,
                        "TEXCOORD_4" : 32,
                        "TEXCOORD_5" : 33,
                        "NORMAL" : 34
                    },
                    "indices" : 35,
                    "material" : 3
                }
            ]
        }
    ],
    "textures" : [
        {
            "sampler" : 0,
            "source" : 0
        },
        {
            "sampler" : 0,
            "source" : 1
        },
        {
            "sampler" : 0,
            "source" : 2
        },
        {
            "sampler" : 0,
            "source" : 3
        },
        {
            "sampler" : 0,
            "source" : 4
        },
        {
            "sampler" : 0,
            "source" : 5
        }
    ],
    "images" : [
        {
            "bufferView" : 9,
            "mimeType" : "image/png",
            "name" : "M_Smooth_01_normal"
        },
        {
            "bufferView" : 10,
            "mimeType" : "image/png",
            "name" : "M_Smooth_01_baseColor"
        },
        {
            "bufferView" : 11,
            "mimeType" : "image/png",
            "name" : "M_Smooth_01_metallicRoughness"
        },
        {
            "bufferView" : 30,
            "mimeType" : "image/png",
            "name" : "M_Glass_02_normal"
        },
        {
            "bufferView" : 31,
            "mimeType" : "image/png",
            "name" : "M_Glass_02_baseColor"
        },
        {
            "bufferView" : 32,
            "mimeType" : "image/png",
            "name" : "M_Glass_02_metallicRoughness"
        }
    ],
    "accessors" : [
        {
            "bufferView" : 0,
            "componentType" : 5126,
            "count" : 1990,
            "max" : [
                8.251023292541504,
                4.661188125610352,
                15.14416790008545
            ],
            "min" : [
                -12.611842155456543,
                0.1062336266040802,
                -13.132855415344238
            ],
            "type" : "VEC3"
        },
        {
            "bufferView" : 1,
            "componentType" : 5126,
            "count" : 1990,
            "type" : "VEC2"
        },
        {
            "bufferView" : 2,
            "componentType" : 5126,
            "count" : 1990,
            "type" : "VEC2"
        },
        {
            "bufferView" : 3,
            "componentType" : 5126,
            "count" : 1990,
            "type" : "VEC2"
        },
        {
            "bufferView" : 4,
            "componentType" : 5126,
            "count" : 1990,
            "type" : "VEC2"
        },
        {
            "bufferView" : 5,
            "componentType" : 5126,
            "count" : 1990,
            "type" : "VEC2"
        },
        {
            "bufferView" : 6,
            "componentType" : 5126,
            "count" : 1990,
            "type" : "VEC2"
        },
        {
            "bufferView" : 7,
            "componentType" : 5126,
            "count" : 1990,
            "type" : "VEC3"
        },
        {
            "bufferView" : 8,
            "componentType" : 5123,
            "count" : 3096,
            "type" : "SCALAR"
        },
        {
            "bufferView" : 12,
            "componentType" : 5126,
            "count" : 5119,
            "max" : [
                8.251029968261719,
                4.906076908111572,
                15.144170761108398
            ],
            "min" : [
                -12.611833572387695,
                1.3571966886520386,
                -13.132850646972656
            ],
            "type" : "VEC3"
        },
        {
            "bufferView" : 13,
            "componentType" : 5126,
            "count" : 5119,
            "type" : "VEC2"
        },
        {
            "bufferView" : 14,
            "componentType" : 5126,
            "count" : 5119,
            "type" : "VEC2"
        },
        {
            "bufferView" : 15,
            "componentType" : 5126,
            "count" : 5119,
            "type" : "VEC2"
        },
        {
            "bufferView" : 16,
            "componentType" : 5126,
            "count" : 5119,
            "type" : "VEC2"
        },
        {
            "bufferView" : 17,
            "componentType" : 5126,
            "count" : 5119,
            "type" : "VEC2"
        },
        {
            "bufferView" : 18,
            "componentType" : 5126,
            "count" : 5119,
            "type" : "VEC2"
        },
        {
            "bufferView" : 19,
            "componentType" : 5126,
            "count" : 5119,
            "type" : "VEC3"
        },
        {
            "bufferView" : 20,
            "componentType" : 5123,
            "count" : 9909,
            "type" : "SCALAR"
        },
        {
            "bufferView" : 21,
            "componentType" : 5126,
            "count" : 920,
            "max" : [
                7.183974266052246,
                2.6422462463378906,
                14.339424133300781
            ],
            "min" : [
                -11.22087287902832,
                -0.0470472127199173,
                -12.332849502563477
            ],
            "type" : "VEC3"
        },
        {
            "bufferView" : 22,
            "componentType" : 5126,
            "count" : 920,
            "type" : "VEC2"
        },
        {
            "bufferView" : 23,
            "componentType" : 5126,
            "count" : 920,
            "type" : "VEC2"
        },
        {
            "bufferView" : 24,
            "componentType" : 5126,
            "count" : 920,
            "type" : "VEC2"
        },
        {
            "bufferView" : 25,
            "componentType" : 5126,
            "count" : 920,
            "type" : "VEC2"
        },
        {
            "bufferView" : 26,
            "componentType" : 5126,
            "count" : 920,
            "type" : "VEC2"
        },
        {
            "bufferView" : 27,
            "componentType" : 5126,
            "count" : 920,
            "type" : "VEC2"
        },
        {
            "bufferView" : 28,
            "componentType" : 5126,
            "count" : 920,
            "type" : "VEC3"
        },
        {
            "bufferView" : 29,
            "componentType" : 5123,
            "count" : 1800,
            "type" : "SCALAR"
        },
        {
            "bufferView" : 33,
            "componentType" : 5126,
            "count" : 622,
            "max" : [
                6.11250114440918,
                4.411076068878174,
                13.221933364868164
            ],
            "min" : [
                -10.278003692626953,
                1.7902601957321167,
                -11.210175514221191
            ],
            "type" : "VEC3"
        },
        {
            "bufferView" : 34,
            "componentType" : 5126,
            "count" : 622,
            "type" : "VEC2"
        },
        {
            "bufferView" : 35,
            "componentType" : 5126,
            "count" : 622,
            "type" : "VEC2"
        },
        {
            "bufferView" : 36,
            "componentType" : 5126,
            "count" : 622,
            "type" : "VEC2"
        },
        {
            "bufferView" : 37,
            "componentType" : 5126,
            "count" : 622,
            "type" : "VEC2"
        },
        {
            "bufferView" : 38,
            "componentType" : 5126,
            "count" : 622,
            "type" : "VEC2"
        },
        {
            "bufferView" : 39,
            "componentType" : 5126,
            "count" : 622,
            "type" : "VEC2"
        },
        {
            "bufferView" : 40,
            "componentType" : 5126,
            "count" : 622,
            "type" : "VEC3"
        },
        {
            "bufferView" : 41,
            "componentType" : 5123,
            "count" : 1128,
            "type" : "SCALAR"
        }
    ],
    "bufferViews" : [
        {
            "buffer" : 0,
            "byteLength" : 23880,
            "byteOffset" : 0,
            "target" : 34962
        },
        {
            "buffer" : 0,
            "byteLength" : 15920,
            "byteOffset" : 23880,
            "target" : 34962
        },
        {
            "buffer" : 0,
            "byteLength" : 15920,
            "byteOffset" : 39800,
            "target" : 34962
        },
        {
            "buffer" : 0,
            "byteLength" : 15920,
            "byteOffset" : 55720,
            "target" : 34962
        },
        {
            "buffer" : 0,
            "byteLength" : 15920,
            "byteOffset" : 71640,
            "target" : 34962
        },
        {
            "buffer" : 0,
            "byteLength" : 15920,
            "byteOffset" : 87560,
            "target" : 34962
        },
        {
            "buffer" : 0,
            "byteLength" : 15920,
            "byteOffset" : 103480,
            "target" : 34962
        },
        {
            "buffer" : 0,
            "byteLength" : 23880,
            "byteOffset" : 119400,
            "target" : 34962
        },
        {
            "buffer" : 0,
            "byteLength" : 6192,
            "byteOffset" : 143280,
            "target" : 34963
        },
        {
            "buffer" : 0,
            "byteLength" : 1442684,
            "byteOffset" : 149472
        },
        {
            "buffer" : 0,
            "byteLength" : 6989,
            "byteOffset" : 1592156
        },
        {
            "buffer" : 0,
            "byteLength" : 605,
            "byteOffset" : 1599148
        },
        {
            "buffer" : 0,
            "byteLength" : 61428,
            "byteOffset" : 1599756,
            "target" : 34962
        },
        {
            "buffer" : 0,
            "byteLength" : 40952,
            "byteOffset" : 1661184,
            "target" : 34962
        },
        {
            "buffer" : 0,
            "byteLength" : 40952,
            "byteOffset" : 1702136,
            "target" : 34962
        },
        {
            "buffer" : 0,
            "byteLength" : 40952,
            "byteOffset" : 1743088,
            "target" : 34962
        },
        {
            "buffer" : 0,
            "byteLength" : 40952,
            "byteOffset" : 1784040,
            "target" : 34962
        },
        {
            "buffer" : 0,
            "byteLength" : 40952,
            "byteOffset" : 1824992,
            "target" : 34962
        },
        {
            "buffer" : 0,
            "byteLength" : 40952,
            "byteOffset" : 1865944,
            "target" : 34962
        },
        {
            "buffer" : 0,
            "byteLength" : 61428,
            "byteOffset" : 1906896,
            "target" : 34962
        },
        {
            "buffer" : 0,
            "byteLength" : 19818,
            "byteOffset" : 1968324,
            "target" : 34963
        },
        {
            "buffer" : 0,
            "byteLength" : 11040,
            "byteOffset" : 1988144,
            "target" : 34962
        },
        {
            "buffer" : 0,
            "byteLength" : 7360,
            "byteOffset" : 1999184,
            "target" : 34962
        },
        {
            "buffer" : 0,
            "byteLength" : 7360,
            "byteOffset" : 2006544,
            "target" : 34962
        },
        {
            "buffer" : 0,
            "byteLength" : 7360,
            "byteOffset" : 2013904,
            "target" : 34962
        },
        {
            "buffer" : 0,
            "byteLength" : 7360,
            "byteOffset" : 2021264,
            "target" : 34962
        },
        {
            "buffer" : 0,
            "byteLength" : 7360,
            "byteOffset" : 2028624,
            "target" : 34962
        },
        {
            "buffer" : 0,
            "byteLength" : 7360,
            "byteOffset" : 2035984,
            "target" : 34962
        },
        {
            "buffer" : 0,
            "byteLength" : 11040,
            "byteOffset" : 2043344,
            "target" : 34962
        },
        {
            "buffer" : 0,
            "byteLength" : 3600,
            "byteOffset" : 2054384,
            "target" : 34963
        },
        {
            "buffer" : 0,
            "byteLength" : 269958,
            "byteOffset" : 2057984
        },
        {
            "buffer" : 0,
            "byteLength" : 94880,
            "byteOffset" : 2327944
        },
        {
            "buffer" : 0,
            "byteLength" : 107899,
            "byteOffset" : 2422824
        },
        {
            "buffer" : 0,
            "byteLength" : 7464,
            "byteOffset" : 2530724,
            "target" : 34962
        },
        {
            "buffer" : 0,
            "byteLength" : 4976,
            "byteOffset" : 2538188,
            "target" : 34962
        },
        {
            "buffer" : 0,
            "byteLength" : 4976,
            "byteOffset" : 2543164,
            "target" : 34962
        },
        {
            "buffer" : 0,
            "byteLength" : 4976,
            "byteOffset" : 2548140,
            "target" : 34962
        },
        {
            "buffer" : 0,
            "byteLength" : 4976,
            "byteOffset" : 2553116,
            "target" : 34962
        },
        {
            "buffer" : 0,
            "byteLength" : 4976,
            "byteOffset" : 2558092,
            "target" : 34962
        },
        {
            "buffer" : 0,
            "byteLength" : 4976,
            "byteOffset" : 2563068,
            "target" : 34962
        },
        {
            "buffer" : 0,
            "byteLength" : 7464,
            "byteOffset" : 2568044,
            "target" : 34962
        },
        {
            "buffer" : 0,
            "byteLength" : 2256,
            "byteOffset" : 2575508,
            "target" : 34963
        }
    ],
    "samplers" : [
        {
            "magFilter" : 9729,
            "minFilter" : 9987
        }
    ],
    "buffers" : [
        {
            "byteLength" : 2577764,
            "uri" : "data:application/octet-stream;base64,"
        }
    ]
}
