{
    "asset" : {
        "generator" : "Khronos glTF Blender I/O v3.4.50",
        "version" : "2.0"
    },
    "scene" : 0,
    "scenes" : [
        {
            "name" : "Scene",
            "nodes" : [
                0
            ]
        }
    ],
    "nodes" : [
        {
            "mesh" : 0,
            "name" : "Object_379.001",
            "translation" : [
                334.4870910644531,
                0,
                -0.054593563079833984
            ]
        }
    ],
    "materials" : [
        {
            "doubleSided" : true,
            "name" : "M_Smooth_01.005",
            "normalTexture" : {
                "index" : 0,
                "texCoord" : 2
            },
            "pbrMetallicRoughness" : {
                "baseColorTexture" : {
                    "index" : 1
                },
                "metallicRoughnessTexture" : {
                    "index" : 2,
                    "texCoord" : 1
                }
            }
        },
        {
            "doubleSided" : true,
            "name" : "M_Glass_02.002",
            "normalTexture" : {
                "index" : 3
            },
            "pbrMetallicRoughness" : {
                "baseColorTexture" : {
                    "index" : 4
                },
                "metallicRoughnessTexture" : {
                    "index" : 5
                }
            }
        }
    ],
    "meshes" : [
        {
            "name" : "Object_298.001",
            "primitives" : [
                {
                    "attributes" : {
                        "POSITION" : 0,
                        "TEXCOORD_0" : 1,
                        "TEXCOORD_1" : 2,
                        "TEXCOORD_2" : 3,
                        "TEXCOORD_3" : 4,
                        "NORMAL" : 5
                    },
                    "indices" : 6,
                    "material" : 0
                },
                {
                    "attributes" : {
                        "POSITION" : 7,
                        "TEXCOORD_0" : 8,
                        "TEXCOORD_1" : 9,
                        "TEXCOORD_2" : 10,
                        "TEXCOORD_3" : 11,
                        "NORMAL" : 12
                    },
                    "indices" : 13,
                    "material" : 1
                }
            ]
        }
    ],
    "textures" : [
        {
            "sampler" : 0,
            "source" : 0
        },
        {
            "sampler" : 0,
            "source" : 1
        },
        {
            "sampler" : 0,
            "source" : 2
        },
        {
            "sampler" : 0,
            "source" : 3
        },
        {
            "sampler" : 0,
            "source" : 4
        },
        {
            "sampler" : 0,
            "source" : 5
        }
    ],
    "images" : [
        {
            "bufferView" : 7,
            "mimeType" : "image/png",
            "name" : "M_Smooth_01_normal"
        },
        {
            "bufferView" : 8,
            "mimeType" : "image/png",
            "name" : "M_Smooth_01_baseColor"
        },
        {
            "bufferView" : 9,
            "mimeType" : "image/png",
            "name" : "M_Smooth_01_metallicRoughness"
        },
        {
            "bufferView" : 17,
            "mimeType" : "image/png",
            "name" : "M_Glass_02_normal"
        },
        {
            "bufferView" : 18,
            "mimeType" : "image/png",
            "name" : "M_Glass_02_baseColor"
        },
        {
            "bufferView" : 19,
            "mimeType" : "image/png",
            "name" : "M_Glass_02_metallicRoughness"
        }
    ],
    "accessors" : [
        {
            "bufferView" : 0,
            "componentType" : 5126,
            "count" : 4796,
            "max" : [
                4.92935848236084,
                20.93233871459961,
                2.966428756713867
            ],
            "min" : [
                -10.661996841430664,
                -0.03502412140369415,
                -2.9664247035980225
            ],
            "type" : "VEC3"
        },
        {
            "bufferView" : 1,
            "componentType" : 5126,
            "count" : 4796,
            "type" : "VEC2"
        },
        {
            "bufferView" : 2,
            "componentType" : 5126,
            "count" : 4796,
            "type" : "VEC2"
        },
        {
            "bufferView" : 3,
            "componentType" : 5126,
            "count" : 4796,
            "type" : "VEC2"
        },
        {
            "bufferView" : 4,
            "componentType" : 5126,
            "count" : 4796,
            "type" : "VEC2"
        },
        {
            "bufferView" : 5,
            "componentType" : 5126,
            "count" : 4796,
            "type" : "VEC3"
        },
        {
            "bufferView" : 6,
            "componentType" : 5123,
            "count" : 21366,
            "type" : "SCALAR"
        },
        {
            "bufferView" : 10,
            "componentType" : 5126,
            "count" : 1099,
            "max" : [
                4.180008888244629,
                15.8583984375,
                2.1364247798919678
            ],
            "min" : [
                -9.008580207824707,
                -2.384185791015625e-07,
                -2.1364188194274902
            ],
            "type" : "VEC3"
        },
        {
            "bufferView" : 11,
            "componentType" : 5126,
            "count" : 1099,
            "type" : "VEC2"
        },
        {
            "bufferView" : 12,
            "componentType" : 5126,
            "count" : 1099,
            "type" : "VEC2"
        },
        {
            "bufferView" : 13,
            "componentType" : 5126,
            "count" : 1099,
            "type" : "VEC2"
        },
        {
            "bufferView" : 14,
            "componentType" : 5126,
            "count" : 1099,
            "type" : "VEC2"
        },
        {
            "bufferView" : 15,
            "componentType" : 5126,
            "count" : 1099,
            "type" : "VEC3"
        },
        {
            "bufferView" : 16,
            "componentType" : 5123,
            "count" : 5568,
            "type" : "SCALAR"
        }
    ],
    "bufferViews" : [
        {
            "buffer" : 0,
            "byteLength" : 57552,
            "byteOffset" : 0,
            "target" : 34962
        },
        {
            "buffer" : 0,
            "byteLength" : 38368,
            "byteOffset" : 57552,
            "target" : 34962
        },
        {
            "buffer" : 0,
            "byteLength" : 38368,
            "byteOffset" : 95920,
            "target" : 34962
        },
        {
            "buffer" : 0,
            "byteLength" : 38368,
            "byteOffset" : 134288,
            "target" : 34962
        },
        {
            "buffer" : 0,
            "byteLength" : 38368,
            "byteOffset" : 172656,
            "target" : 34962
        },
        {
            "buffer" : 0,
            "byteLength" : 57552,
            "byteOffset" : 211024,
            "target" : 34962
        },
        {
            "buffer" : 0,
            "byteLength" : 42732,
            "byteOffset" : 268576,
            "target" : 34963
        },
        {
            "buffer" : 0,
            "byteLength" : 1442684,
            "byteOffset" : 311308
        },
        {
            "buffer" : 0,
            "byteLength" : 6989,
            "byteOffset" : 1753992
        },
        {
            "buffer" : 0,
            "byteLength" : 605,
            "byteOffset" : 1760984
        },
        {
            "buffer" : 0,
            "byteLength" : 13188,
            "byteOffset" : 1761592,
            "target" : 34962
        },
        {
            "buffer" : 0,
            "byteLength" : 8792,
            "byteOffset" : 1774780,
            "target" : 34962
        },
        {
            "buffer" : 0,
            "byteLength" : 8792,
            "byteOffset" : 1783572,
            "target" : 34962
        },
        {
            "buffer" : 0,
            "byteLength" : 8792,
            "byteOffset" : 1792364,
            "target" : 34962
        },
        {
            "buffer" : 0,
            "byteLength" : 8792,
            "byteOffset" : 1801156,
            "target" : 34962
        },
        {
            "buffer" : 0,
            "byteLength" : 13188,
            "byteOffset" : 1809948,
            "target" : 34962
        },
        {
            "buffer" : 0,
            "byteLength" : 11136,
            "byteOffset" : 1823136,
            "target" : 34963
        },
        {
            "buffer" : 0,
            "byteLength" : 269958,
            "byteOffset" : 1834272
        },
        {
            "buffer" : 0,
            "byteLength" : 94880,
            "byteOffset" : 2104232
        },
        {
            "buffer" : 0,
            "byteLength" : 107899,
            "byteOffset" : 2199112
        }
    ],
    "samplers" : [
        {
            "magFilter" : 9729,
            "minFilter" : 9987
        }
    ],
    "buffers" : [
        {
            "byteLength" : 2307012,
            "uri" : "data:application/octet-stream;base64,"
        }
    ]
}
