{
    "asset" : {
        "generator" : "Khronos glTF Blender I/O v3.4.50",
        "version" : "2.0"
    },
    "extensionsUsed" : [
        "KHR_materials_emissive_strength",
        "KHR_materials_specular",
        "KHR_materials_clearcoat"
    ],
    "scene" : 0,
    "scenes" : [
        {
            "name" : "Scene",
            "nodes" : [
                3
            ]
        }
    ],
    "nodes" : [
        {
            "mesh" : 0,
            "name" : "Platform1"
        },
        {
            "mesh" : 1,
            "name" : "Platform2"
        },
        {
            "mesh" : 2,
            "name" : "PortalBorder"
        },
        {
            "children" : [
                0,
                1,
                2
            ],
            "name" : "Portal"
        }
    ],
    "materials" : [
        {
            "doubleSided" : true,
            "emissiveFactor" : [
                1,
                1,
                1
            ],
            "emissiveTexture" : {
                "index" : 0
            },
            "extensions" : {
                "KHR_materials_emissive_strength" : {
                    "emissiveStrength" : 2.605722188949585
                },
                "KHR_materials_specular" : {
                    "specularColorTexture" : {
                        "index" : 1
                    }
                }
            },
            "name" : "portal_button_blue.001",
            "pbrMetallicRoughness" : {
                "baseColorFactor" : [
                    0.07850728929042816,
                    0.07850728929042816,
                    0.07850728929042816,
                    1
                ],
                "metallicFactor" : 0.49219197034835815,
                "roughnessFactor" : 0.10209555178880692
            }
        },
        {
            "doubleSided" : true,
            "extensions" : {
                "KHR_materials_clearcoat" : {
                    "clearcoatFactor" : 1,
                    "clearcoatRoughnessFactor" : 0.284953236579895
                },
                "KHR_materials_specular" : {
                    "specularColorTexture" : {
                        "index" : 2
                    }
                }
            },
            "name" : "portal_button_switch.001",
            "pbrMetallicRoughness" : {
                "baseColorFactor" : [
                    0.12363328784704208,
                    0.12363328784704208,
                    0.12363328784704208,
                    1
                ],
                "metallicFactor" : 0.8818181753158569,
                "roughnessFactor" : 0.08040778338909149
            }
        },
        {
            "doubleSided" : true,
            "extensions" : {
                "KHR_materials_clearcoat" : {
                    "clearcoatFactor" : 1,
                    "clearcoatRoughnessFactor" : 0.284953236579895
                },
                "KHR_materials_specular" : {
                    "specularColorTexture" : {
                        "index" : 3
                    }
                }
            },
            "name" : "portal_button_switch",
            "pbrMetallicRoughness" : {
                "baseColorFactor" : [
                    0.12363328784704208,
                    0.12363328784704208,
                    0.12363328784704208,
                    1
                ],
                "metallicFactor" : 0.8818181753158569,
                "roughnessFactor" : 0.08040778338909149
            }
        }
    ],
    "meshes" : [
        {
            "name" : "portal_button_reduced_2_portal_button_blue_0.001",
            "primitives" : [
                {
                    "attributes" : {
                        "POSITION" : 0,
                        "TEXCOORD_0" : 1,
                        "TEXCOORD_1" : 2,
                        "NORMAL" : 3
                    },
                    "indices" : 4,
                    "material" : 0
                }
            ]
        },
        {
            "name" : "portal_button_reduced_2_portal_button_switch_0.001",
            "primitives" : [
                {
                    "attributes" : {
                        "POSITION" : 5,
                        "TEXCOORD_0" : 6,
                        "NORMAL" : 7
                    },
                    "indices" : 8,
                    "material" : 1
                }
            ]
        },
        {
            "name" : "Cylinder.001",
            "primitives" : [
                {
                    "attributes" : {
                        "POSITION" : 9,
                        "TEXCOORD_0" : 10,
                        "NORMAL" : 11
                    },
                    "indices" : 12,
                    "material" : 2
                }
            ]
        }
    ],
    "textures" : [
        {
            "sampler" : 0,
            "source" : 0
        },
        {
            "sampler" : 0,
            "source" : 1
        },
        {
            "sampler" : 1,
            "source" : 1
        },
        {
            "sampler" : 1,
            "source" : 1
        }
    ],
    "images" : [
        {
            "bufferView" : 5,
            "mimeType" : "image/png",
            "name" : "portal_button_blue_emissive"
        },
        {
            "bufferView" : 6,
            "mimeType" : "image/png",
            "name" : "Image"
        }
    ],
    "accessors" : [
        {
            "bufferView" : 0,
            "componentType" : 5126,
            "count" : 10087,
            "max" : [
                1.2506555318832397,
                0.15492713451385498,
                1.2506555318832397
            ],
            "min" : [
                -1.2506555318832397,
                -0.052474670112133026,
                -1.2506555318832397
            ],
            "type" : "VEC3"
        },
        {
            "bufferView" : 1,
            "componentType" : 5126,
            "count" : 10087,
            "type" : "VEC2"
        },
        {
            "bufferView" : 2,
            "componentType" : 5126,
            "count" : 10087,
            "type" : "VEC2"
        },
        {
            "bufferView" : 3,
            "componentType" : 5126,
            "count" : 10087,
            "type" : "VEC3"
        },
        {
            "bufferView" : 4,
            "componentType" : 5123,
            "count" : 16596,
            "type" : "SCALAR"
        },
        {
            "bufferView" : 7,
            "componentType" : 5126,
            "count" : 744,
            "max" : [
                0.6367407441139221,
                0.18634359538555145,
                0.6362780332565308
            ],
            "min" : [
                -0.6369471549987793,
                0.11134178936481476,
                -0.6370493173599243
            ],
            "type" : "VEC3"
        },
        {
            "bufferView" : 8,
            "componentType" : 5126,
            "count" : 744,
            "type" : "VEC2"
        },
        {
            "bufferView" : 9,
            "componentType" : 5126,
            "count" : 744,
            "type" : "VEC3"
        },
        {
            "bufferView" : 10,
            "componentType" : 5123,
            "count" : 1338,
            "type" : "SCALAR"
        },
        {
            "bufferView" : 11,
            "componentType" : 5126,
            "count" : 1536,
            "max" : [
                0.6903038620948792,
                1.3370369672775269,
                0.0850634053349495
            ],
            "min" : [
                -0.6903038620948792,
                -0.04357064515352249,
                -0.0850634053349495
            ],
            "type" : "VEC3"
        },
        {
            "bufferView" : 12,
            "componentType" : 5126,
            "count" : 1536,
            "type" : "VEC2"
        },
        {
            "bufferView" : 13,
            "componentType" : 5126,
            "count" : 1536,
            "type" : "VEC3"
        },
        {
            "bufferView" : 14,
            "componentType" : 5123,
            "count" : 2304,
            "type" : "SCALAR"
        }
    ],
    "bufferViews" : [
        {
            "buffer" : 0,
            "byteLength" : 121044,
            "byteOffset" : 0,
            "target" : 34962
        },
        {
            "buffer" : 0,
            "byteLength" : 80696,
            "byteOffset" : 121044,
            "target" : 34962
        },
        {
            "buffer" : 0,
            "byteLength" : 80696,
            "byteOffset" : 201740,
            "target" : 34962
        },
        {
            "buffer" : 0,
            "byteLength" : 121044,
            "byteOffset" : 282436,
            "target" : 34962
        },
        {
            "buffer" : 0,
            "byteLength" : 33192,
            "byteOffset" : 403480,
            "target" : 34963
        },
        {
            "buffer" : 0,
            "byteLength" : 26944,
            "byteOffset" : 436672
        },
        {
            "buffer" : 0,
            "byteLength" : 15799,
            "byteOffset" : 463616
        },
        {
            "buffer" : 0,
            "byteLength" : 8928,
            "byteOffset" : 479416,
            "target" : 34962
        },
        {
            "buffer" : 0,
            "byteLength" : 5952,
            "byteOffset" : 488344,
            "target" : 34962
        },
        {
            "buffer" : 0,
            "byteLength" : 8928,
            "byteOffset" : 494296,
            "target" : 34962
        },
        {
            "buffer" : 0,
            "byteLength" : 2676,
            "byteOffset" : 503224,
            "target" : 34963
        },
        {
            "buffer" : 0,
            "byteLength" : 18432,
            "byteOffset" : 505900,
            "target" : 34962
        },
        {
            "buffer" : 0,
            "byteLength" : 12288,
            "byteOffset" : 524332,
            "target" : 34962
        },
        {
            "buffer" : 0,
            "byteLength" : 18432,
            "byteOffset" : 536620,
            "target" : 34962
        },
        {
            "buffer" : 0,
            "byteLength" : 4608,
            "byteOffset" : 555052,
            "target" : 34963
        }
    ],
    "samplers" : [
        {
            "magFilter" : 9729,
            "minFilter" : 9987
        },
        {
            "magFilter" : 9728,
            "minFilter" : 9984
        }
    ],
    "buffers" : [
        {
            "byteLength" : 559660,
            "uri" : "data:application/octet-stream;base64,"
        }
    ]
}
